<svg width="344" height="51" viewBox="0 0 344 51" fill="none" xmlns="http://www.w3.org/2000/svg">
<path d="M297.173 50.3061L297.245 49.3014L300.977 48.7991C301.312 48.7513 301.599 48.4403 301.838 47.8662L317.339 0H322.075L338.581 48.8709L343.533 49.1579C343.533 49.2058 343.509 49.5646 343.461 50.2344L329.108 50.3061C329.108 49.8755 329.132 49.5407 329.18 49.3014L332.912 48.7991C333.294 48.7513 333.486 48.4642 333.486 47.9379L329.539 36.2405H307.148L303.345 48.7273L311.67 49.1579C311.67 49.2058 311.646 49.5646 311.598 50.2344L297.173 50.3061ZM317.841 1.3635L307.579 34.8052H329.036L317.841 1.3635Z" fill="#121212"/>
<path d="M250.55 1.07645L250.622 0H260.453L288.369 48.225L288.01 2.51172C287.819 2.0333 287.556 1.77016 287.221 1.72232L280.619 1.14822C280.571 0.861161 280.547 0.502343 280.547 0.0717625L294.182 0C294.182 0.0478416 294.206 0.406658 294.254 1.07645L289.661 1.5788V50.2344H284.422L256.506 2.00937L256.865 48.7273L265.046 49.1579C265.046 49.2058 265.022 49.5646 264.974 50.2344L250.55 50.3061L250.622 49.3014L254.353 48.7991C254.832 48.7513 255.119 48.4403 255.214 47.8662V2.43996C255.119 1.86585 254.832 1.55487 254.353 1.50703L250.55 1.07645Z" fill="#121212"/>
<path d="M230.585 50.3061L230.657 49.3014L234.389 48.7991C234.867 48.7513 235.154 48.4403 235.25 47.8662H235.322V2.51172H235.25C235.154 1.88977 234.867 1.55487 234.389 1.50703L230.657 1.14822L230.585 0.0717625L245.01 0C245.01 0.0478416 245.034 0.406658 245.082 1.07645L240.202 1.50703V48.8709L245.082 49.1579C245.082 49.2058 245.058 49.5646 245.01 50.2344L230.585 50.3061Z" fill="#121212"/>
<path d="M225.637 0C225.637 0.0478416 225.661 0.406658 225.709 1.07645L219.609 1.65056L202.17 21.9596L223.412 48.9426L226.785 49.1579C226.785 49.2058 226.761 49.5646 226.713 50.2344L218.963 50.3061L198.223 24.1125L198.151 24.0407V48.8709L203.031 49.1579C203.031 49.2058 203.007 49.5646 202.96 50.2344L188.607 50.3061C188.607 49.8755 188.631 49.5407 188.679 49.3014L192.41 48.7991C192.889 48.7513 193.176 48.4403 193.272 47.8662V2.43996C193.08 1.86585 192.793 1.55487 192.41 1.50703L188.679 1.14822C188.631 0.861161 188.607 0.502343 188.607 0.0717625L202.96 0C202.96 0.0478416 202.984 0.406658 203.031 1.07645L198.151 1.50703V23.969L198.295 23.8972L215.877 2.87054C216.26 2.10506 216.116 1.65056 215.446 1.50703L211.715 1.14822C211.667 0.861161 211.643 0.502343 211.643 0.0717625L225.637 0ZM198.151 23.969V24.0407V23.969Z" fill="#121212"/>
<path d="M139.4 1.07645L139.472 0H149.304L177.22 48.225L176.861 2.51172C176.669 2.0333 176.406 1.77016 176.071 1.72232L169.469 1.14822C169.421 0.861161 169.397 0.502343 169.397 0.0717625L183.033 0C183.033 0.0478416 183.056 0.406658 183.104 1.07645L178.511 1.5788V50.2344H173.273L145.357 2.00937L145.716 48.7273L153.897 49.1579C153.897 49.2058 153.873 49.5646 153.825 50.2344L139.4 50.3061L139.472 49.3014L143.204 48.7991C143.682 48.7513 143.969 48.4403 144.065 47.8662V2.43996C143.969 1.86585 143.682 1.55487 143.204 1.50703L139.4 1.07645Z" fill="#121212"/>
<path d="M36.7183 1.07645L36.79 0H54.2285C59.1563 0 62.9597 1.07645 65.6389 3.22935C68.3181 5.38226 69.6576 8.58769 69.6576 12.8456C69.6576 15.6205 68.5812 18.515 66.4283 21.529C64.3232 24.5431 62.3378 26.4807 60.4719 27.3418L73.7482 48.9426L77.2646 49.1579C77.2646 49.2058 77.2407 49.5646 77.1928 50.2344L69.3706 50.3061L55.7356 28.203H46.191V48.8709L51.2145 49.1579C51.2145 49.2058 51.1905 49.5646 51.1427 50.2344L36.7183 50.3061L36.79 49.3014L40.5217 48.7991C40.8566 48.7513 41.1197 48.536 41.3111 48.1532V2.22467C41.1676 1.79409 40.9045 1.55487 40.5217 1.50703L36.7183 1.07645ZM53.8697 1.07645H46.191V27.1266H58.4626C60.9504 24.3039 62.6248 21.8161 63.486 19.6632C64.3472 17.4624 64.7777 15.3334 64.7777 13.2762C64.7777 9.25748 63.8448 6.21949 61.979 4.16228C60.1131 2.10506 57.41 1.07645 53.8697 1.07645Z" fill="#121212"/>
<path d="M0 0.861223L0.143527 6.10352e-05H15.0703C20.9549 6.10352e-05 25.3085 1.00475 28.1312 3.01412C31.0018 5.0235 32.437 8.82696 32.437 14.4245C32.437 19.9742 30.9539 24.0886 27.9877 26.7678C25.0693 29.3991 20.7635 30.7148 15.0703 30.7148H9.54453V48.8709L14.4962 49.158C14.4962 49.2058 14.4723 49.5646 14.4244 50.2344L0.0717635 50.3062C0.0717635 49.8756 0.0956846 49.5407 0.143527 49.3015L3.87522 48.7992C4.21012 48.7513 4.47325 48.536 4.66462 48.1533V2.22473C4.47325 1.79415 4.21012 1.55494 3.87522 1.50709L0.0717635 1.07651C0.0239212 1.02867 0 0.956907 0 0.861223ZM14.7115 1.07651H9.54453V29.6383H14.7115C19.0173 29.6383 22.2227 28.4901 24.3278 26.1937C26.4807 23.8973 27.5571 20.0699 27.5571 14.7116C27.5571 9.30538 26.5046 5.69329 24.3995 3.87528C22.2945 2.00944 19.0651 1.07651 14.7115 1.07651Z" fill="#121212"/>
<path d="M87.5747 47.7374H97.2349V49.7901H85.522V36.8936H87.5747V47.7374ZM130.32 49.7901H118.607V47.7374H128.267V36.8936H130.32V49.7901ZM108.24 13.1573C114.926 13.3253 120.293 18.74 120.293 25.3946L120.29 25.7101C120.12 32.3243 114.647 37.6354 107.92 37.6358L107.601 37.631C101.021 37.4663 95.717 32.2197 95.5503 25.7101L95.5464 25.3946C95.5464 18.6341 101.087 13.1534 107.92 13.1534L108.24 13.1573ZM107.92 15.2061C102.199 15.2061 97.5991 19.7885 97.5991 25.3946C97.5994 31.0005 102.2 35.5831 107.92 35.5831C113.641 35.5827 118.24 31.0002 118.241 25.3946C118.241 19.7887 113.641 15.2066 107.92 15.2061ZM97.2349 2.30966H87.5747V13.1534H85.522V0.256927H97.2349V2.30966ZM130.32 13.1534H128.267V2.30966H118.607V0.256927H130.32V13.1534ZM121.419 7.21786C122.455 7.21801 123.293 8.0491 123.293 9.07333C123.293 10.0974 122.455 10.9277 121.419 10.9278C120.384 10.9278 119.545 10.0975 119.544 9.07333C119.544 8.04901 120.384 7.21786 121.419 7.21786Z" fill="#121212"/>
</svg>
