<svg width="344" height="51" fill="none" xmlns="http://www.w3.org/2000/svg"><path d="M297.173 50.306l.072-1.005 3.732-.502c.335-.048.622-.359.861-.933L317.339 0h4.736l16.506 48.87 4.952.288c0 .048-.024.407-.072 1.076l-14.353.072c0-.43.024-.765.072-1.005l3.732-.502c.382-.048.574-.335.574-.861l-3.947-11.698h-22.391l-3.803 12.487 8.325.43c0 .049-.024.408-.072 1.077l-14.425.072zm20.668-48.942l-10.262 33.441h21.457L317.841 1.364zm-67.291-.288L250.622 0h9.831l27.916 48.225-.359-45.713c-.191-.479-.454-.742-.789-.79l-6.602-.574a6.698 6.698 0 0 1-.072-1.076L294.182 0c0 .048.024.407.072 1.076l-4.593.503v48.655h-5.239L256.506 2.01l.359 46.718 8.181.43c0 .049-.024.408-.072 1.077l-14.424.072.072-1.005 3.731-.502c.479-.048.766-.359.861-.933V2.44c-.095-.574-.382-.885-.861-.933l-3.803-.43zm-19.965 49.23l.072-1.005 3.732-.502c.478-.048.765-.359.861-.933h.072V2.512h-.072c-.096-.622-.383-.957-.861-1.005l-3.732-.359-.072-1.076L245.01 0c0 .048.024.407.072 1.076l-4.88.431v47.364l4.88.287c0 .048-.024.407-.072 1.076l-14.425.072zM225.637 0c0 .048.024.407.072 1.076l-6.1.575L202.17 21.96l21.242 26.983 3.373.215c0 .048-.024.407-.072 1.076l-7.75.072-20.74-26.193-.072-.072v24.83l4.88.287c0 .048-.024.407-.071 1.076l-14.353.072c0-.43.024-.765.072-1.005l3.731-.502c.479-.048.766-.359.862-.933V2.44c-.192-.574-.479-.885-.862-.933l-3.731-.359a6.698 6.698 0 0 1-.072-1.076L202.96 0c0 .048.024.407.071 1.076l-4.88.431v22.462l.144-.072 17.582-21.026c.383-.766.239-1.22-.431-1.364l-3.731-.359a6.698 6.698 0 0 1-.072-1.076L225.637 0zm-27.486 23.969v.072-.072zM139.4 1.076L139.472 0h9.832l27.916 48.225-.359-45.713c-.192-.479-.455-.742-.79-.79l-6.602-.574a6.698 6.698 0 0 1-.072-1.076L183.033 0c0 .048.023.407.071 1.076l-4.593.503v48.655h-5.238L145.357 2.01l.359 46.718 8.181.43c0 .049-.024.408-.072 1.077l-14.425.072.072-1.005 3.732-.502c.478-.048.765-.359.861-.933V2.44c-.096-.574-.383-.885-.861-.933l-3.804-.43zm-102.682 0L36.79 0h17.438c4.928 0 8.732 1.076 11.41 3.23 2.68 2.152 4.02 5.358 4.02 9.616 0 2.774-1.077 5.669-3.23 8.683-2.105 3.014-4.09 4.952-5.956 5.813l13.276 21.6 3.517.216c0 .048-.024.407-.072 1.076l-7.822.072-13.635-22.103H46.19v20.668l5.023.287c0 .048-.023.407-.071 1.076l-14.425.072.072-1.005 3.732-.502c.335-.048.598-.263.79-.646V2.225c-.144-.43-.407-.67-.79-.718l-3.804-.43zm17.152 0h-7.68v26.05h12.272c2.487-2.822 4.162-5.31 5.023-7.463.861-2.2 1.292-4.33 1.292-6.387 0-4.019-.933-7.057-2.799-9.114-1.866-2.057-4.569-3.086-8.11-3.086zM0 .861l.144-.86H15.07c5.885 0 10.238 1.004 13.061 3.013 2.87 2.01 4.306 5.813 4.306 11.41 0 5.55-1.483 9.665-4.45 12.344-2.918 2.631-7.223 3.947-12.917 3.947H9.545V48.87l4.951.287c0 .048-.024.407-.072 1.076l-14.352.072c0-.43.024-.765.072-1.005l3.731-.502c.335-.048.598-.263.79-.646V2.225c-.192-.43-.455-.67-.79-.718l-3.803-.43C.024 1.029 0 .957 0 .86zm14.711.216H9.545v28.561h5.166c4.306 0 7.512-1.148 9.617-3.444 2.153-2.297 3.23-6.124 3.23-11.482 0-5.407-1.053-9.019-3.159-10.837-2.105-1.866-5.334-2.798-9.688-2.798zm72.864 46.66h9.66v2.053H85.522V36.894h2.053v10.843zm42.745 2.053h-11.713v-2.053h9.66V36.894h2.053V49.79zm-22.08-36.633c6.686.168 12.053 5.583 12.053 12.238l-.003.315c-.17 6.614-5.643 11.925-12.37 11.926l-.319-.005c-6.58-.165-11.884-5.411-12.05-11.92l-.005-.316c0-6.76 5.541-12.242 12.374-12.242l.32.004zm-.32 2.05c-5.721 0-10.32 4.581-10.32 10.188 0 5.605 4.6 10.188 10.32 10.188 5.721 0 10.32-4.583 10.321-10.188 0-5.606-4.6-10.188-10.321-10.189zM97.235 2.31h-9.66v10.843h-2.053V.257h11.713V2.31zm33.085 10.843h-2.053V2.31h-9.66V.257h11.713v12.896zm-8.901-5.935c1.036 0 1.874.831 1.874 1.855a1.864 1.864 0 0 1-1.874 1.855 1.866 1.866 0 0 1-1.875-1.855c0-1.024.84-1.855 1.875-1.855z" fill="#121212"/></svg>